<?xml version="1.0" encoding="utf-8"?>
<!-- Generator: Adobe Illustrator 16.0.3, SVG Export Plug-In . SVG Version: 6.00 Build 0)  -->
<!DOCTYPE svg PUBLIC "-//W3C//DTD SVG 1.1//EN" "http://www.w3.org/Graphics/SVG/1.1/DTD/svg11.dtd">
<svg version="1.1" xmlns="http://www.w3.org/2000/svg" xmlns:xlink="http://www.w3.org/1999/xlink" x="0px" y="0px" width="16px"
	 height="16px" viewBox="0 0 16 16" enable-background="new 0 0 16 16" xml:space="preserve">
<g id="Capa_2">
</g>
<g id="Capa_1">
	<path fill="#707070" d="M9.424,14.252l-5.058-0.017c0,0-1.427,0.121-2.267-0.882c-0.66-0.789-0.871-2.092-0.871-2.092V3.156h3.171
		l1.522,1.931L3.589,5.07l0.017,4.596c0,0-0.119,2.234,0.39,2.47c0.964,0.446,3.958,0.188,3.958,0.188L9.424,14.252z"/>
	<path fill="#707070" d="M5.472,0.981l5.057,0.016l3.153-0.079l-0.016,2.847v7.541h-3.171l-1.46-1.939l2.271,0.008l-0.017-4.126
		c0,0,0.059-1.874-0.449-2.093c-0.935-0.402-3.741-0.231-3.907-0.23L5.472,0.981z"/>
	<path fill="#707070" d="M9.424,14.252l-5.058-0.017c0,0-1.427,0.121-2.267-0.882c-0.66-0.789-0.871-2.092-0.871-2.092l2.376-1.595
		c0,0-0.119,2.234,0.39,2.47c0.964,0.446,3.958,0.188,3.958,0.188L9.424,14.252z"/>
	<polygon fill="#707070" points="13.667,3.765 13.667,11.306 10.496,11.306 9.036,9.366 11.307,9.375 11.291,5.249 	"/>
	<g>
		<g>
			<path fill="#707070" d="M9.213,6.119c0,0.235-0.067,0.442-0.201,0.622C8.877,6.92,8.693,7.064,8.458,7.173
				C8.724,7.286,8.934,7.441,9.09,7.637c0.156,0.196,0.233,0.429,0.233,0.697c0,0.432-0.172,0.773-0.515,1.024
				c-0.344,0.25-0.817,0.375-1.42,0.375c-0.605,0-1.083-0.125-1.433-0.377C5.605,9.104,5.43,8.763,5.43,8.333
				c0-0.259,0.077-0.489,0.23-0.688c0.153-0.2,0.371-0.357,0.651-0.472C6.074,7.064,5.888,6.92,5.752,6.741
				c-0.136-0.18-0.203-0.387-0.203-0.622c0-0.421,0.165-0.753,0.494-0.997s0.774-0.366,1.333-0.366c0.565,0,1.012,0.122,1.341,0.366
				S9.213,5.698,9.213,6.119z M8.029,8.244c0-0.199-0.06-0.353-0.178-0.46c-0.119-0.107-0.275-0.161-0.47-0.161
				S7.03,7.676,6.91,7.783s-0.18,0.261-0.18,0.46c0,0.193,0.061,0.345,0.182,0.457c0.121,0.112,0.28,0.168,0.477,0.168
				c0.191,0,0.346-0.055,0.464-0.166C7.97,8.592,8.029,8.438,8.029,8.244z M7.377,5.621c-0.174,0-0.306,0.049-0.396,0.148
				S6.844,6.004,6.844,6.179c0,0.173,0.046,0.313,0.138,0.419s0.228,0.16,0.406,0.16c0.176,0,0.309-0.053,0.396-0.16
				c0.088-0.106,0.132-0.246,0.132-0.419S7.872,5.87,7.781,5.771C7.691,5.67,7.556,5.621,7.377,5.621z"/>
		</g>
	</g>
	<path fill="#1B76AF" d="M9.831,13.956l-4.996-0.017c0,0-1.41,0.118-2.239-0.859c-0.651-0.768-0.86-2.038-0.86-2.038V3.147h3.133
		l1.503,1.881L4.066,5.011l0.017,4.478c0,0-0.117,2.177,0.384,2.406c0.953,0.434,3.91,0.184,3.91,0.184L9.831,13.956z"/>
	<path fill="#1CA9C4" d="M5.926,1.029l4.996,0.015l3.114-0.077L14.021,3.74v7.346h-3.133l-1.441-1.89l2.243,0.008l-0.016-4.019
		c0,0,0.059-1.826-0.443-2.039C10.307,2.755,7.535,2.92,7.371,2.922L5.926,1.029z"/>
	<path fill="#1CA9C4" d="M9.831,13.956l-4.996-0.017c0,0-1.41,0.118-2.239-0.859c-0.651-0.768-0.86-2.038-0.86-2.038l2.347-1.554
		c0,0-0.117,2.177,0.384,2.406c0.953,0.434,3.91,0.184,3.91,0.184L9.831,13.956z"/>
	<polygon fill="#1B76AF" points="14.021,3.74 14.021,11.086 10.888,11.086 9.446,9.196 11.689,9.204 11.673,5.186 	"/>
	<g>
		<g>
			<path fill="#2B5357" d="M9.62,6.033c0,0.229-0.066,0.431-0.199,0.605C9.289,6.813,9.107,6.953,8.875,7.059
				c0.263,0.11,0.471,0.261,0.625,0.452S9.73,7.928,9.73,8.189c0,0.421-0.169,0.753-0.509,0.997
				c-0.34,0.244-0.807,0.366-1.403,0.366c-0.598,0-1.07-0.123-1.416-0.368S5.884,8.608,5.884,8.189c0-0.253,0.076-0.476,0.227-0.67
				s0.366-0.348,0.644-0.46C6.52,6.953,6.336,6.813,6.202,6.638S6.001,6.261,6.001,6.033c0-0.41,0.163-0.734,0.488-0.972
				c0.326-0.237,0.765-0.356,1.317-0.356c0.558,0,1,0.119,1.325,0.356C9.458,5.298,9.62,5.623,9.62,6.033z M8.451,8.102
				c0-0.194-0.059-0.344-0.176-0.448C8.157,7.549,8.003,7.496,7.811,7.496S7.464,7.549,7.345,7.653S7.167,7.908,7.167,8.102
				c0,0.188,0.06,0.336,0.18,0.445C7.467,8.656,7.624,8.71,7.818,8.71c0.189,0,0.342-0.054,0.458-0.162
				C8.393,8.441,8.451,8.292,8.451,8.102z M7.807,5.547c-0.171,0-0.302,0.048-0.392,0.144c-0.09,0.096-0.134,0.229-0.134,0.4
				c0,0.168,0.045,0.304,0.136,0.408c0.091,0.104,0.225,0.155,0.401,0.155c0.174,0,0.305-0.052,0.392-0.155
				c0.087-0.104,0.13-0.24,0.13-0.408S8.296,5.79,8.207,5.692C8.117,5.595,7.984,5.547,7.807,5.547z"/>
		</g>
	</g>
	<g>
	</g>
	<g>
	</g>
	<g>
	</g>
	<g>
	</g>
	<g>
	</g>
	<g>
	</g>
</g>
</svg>
